<!-- <svg width="24" height="24" viewBox="0 0 24 24" fill="none" xmlns="http://www.w3.org/2000/svg">
<path d="M12.1625 10.87C12.0625 10.86 11.9425 10.86 11.8325 10.87C9.4525 10.79 7.5625 8.84 7.5625 6.44C7.5625 3.99 9.5425 2 12.0025 2C14.4525 2 16.4425 3.99 16.4425 6.44C16.4325 8.84 14.5425 10.79 12.1625 10.87Z" stroke="#292D32" stroke-width="1.5" stroke-linecap="round" stroke-linejoin="round"/>
<path d="M7.15875 14.56C4.73875 16.18 4.73875 18.82 7.15875 20.43C9.90875 22.27 14.4188 22.27 17.1688 20.43C19.5888 18.81 19.5888 16.17 17.1688 14.56C14.4288 12.73 9.91875 12.73 7.15875 14.56Z" stroke="#292D32" stroke-width="1.5" stroke-linecap="round" stroke-linejoin="round"/>
</svg> -->
<svg width="52" height="16" viewBox="0 0 52 16" fill="none" xmlns="http://www.w3.org/2000/svg">
<path d="M3.184 4.428V6.78H7.856V8.908H3.184V11.372H7.856V13.5H1.04V2.3H7.856V4.428H3.184ZM19.1286 2.3V13.5H16.9846L12.8246 6.284V13.5H10.6806V2.3H12.8246L16.9846 9.516V2.3H19.1286ZM26.0999 9.228V7.1H30.3239V9.516C30.3239 11.996 28.7879 13.66 26.0999 13.66C23.4119 13.66 21.8759 11.996 21.8759 9.516V6.284C21.8759 3.804 23.4119 2.14 26.0999 2.14C28.6279 2.14 30.1319 3.612 30.3079 5.836H28.1479C27.9559 4.828 27.1239 4.268 26.0999 4.268C24.9319 4.268 24.0199 4.988 24.0199 6.284V9.516C24.0199 10.812 24.9319 11.532 26.0999 11.532C27.2679 11.532 28.1799 10.812 28.1799 9.516V9.228H26.0999Z" fill="#252020"/>
<path d="M38.7213 5.9949L43.0679 10.3416C43.5813 10.8549 44.4212 10.8549 44.9346 10.3416L49.2813 5.9949" stroke="#292D32" stroke-miterlimit="10" stroke-linecap="round" stroke-linejoin="round"/>
</svg>
